<svg width="24" height="32" viewBox="0 0 24 32" fill="none" xmlns="http://www.w3.org/2000/svg">
<path fill-rule="evenodd" clip-rule="evenodd" d="M13.516 22.2818H22.5388C23.3425 22.2818 24 21.5797 24 20.7667C24 17.1455 22.1735 13.8938 19.2146 11.8245L18.8128 9.12702H20.5297C21.3333 9.12702 21.9909 8.46189 21.9909 7.64896V1.62587C21.9909 0.73903 21.3333 0 20.5297 0H3.54338C2.7032 0 2.04566 0.73903 2.04566 1.62587V7.64896C2.04566 8.46189 2.66667 9.12702 3.54338 9.12702H5.22374L4.85845 11.8245C1.86301 13.8938 3.76714e-07 17.1455 0 20.7667C0 21.6166 0.694064 22.2818 1.60731 22.2818H10.5205V28.8961L11.5434 32H12.4931L13.516 28.8961V22.2818ZM20.8584 19.2148H3.21461C3.6895 16.8129 5.40639 14.8176 7.59817 13.709L8.65753 6.097H5.0411V3.03002H18.9954V6.097H15.379L16.4018 13.709C18.6301 14.8176 20.347 16.8499 20.8584 19.2148Z" fill="black"/>
</svg>
