<svg width="38" height="33" viewBox="0 0 38 33" fill="none" xmlns="http://www.w3.org/2000/svg">
<g filter="url(#filter0_f)">
<path fill-rule="evenodd" clip-rule="evenodd" d="M5.76626 18V7.78329C5.76626 6.28982 7.07927 5 8.59959 5H29.3659C30.9553 5 32.2337 6.28982 32.2337 7.78329V18L35.689 23.1253C35.8963 23.4648 36 23.7702 36 24.1436V29.1671C36 30.1854 35.1362 31 34.1341 31H3.90041C2.79472 31 2 30.2193 2 29.1671V24.1436C2 23.8042 2.13821 23.4308 2.34553 23.1253L5.76626 18ZM29.8841 27.3003H8.15041C7.90854 27.3003 7.70122 27.0627 7.70122 26.8251V25.9086C7.70122 25.671 7.87398 25.4674 8.15041 25.4674H29.8841C30.126 25.4674 30.3679 25.671 30.3679 25.9086V26.8251C30.3679 27.0966 30.1606 27.3003 29.8841 27.3003ZM22.7663 14.3003C22.7663 16.3708 21.0732 18.0339 19 18.0339C16.8923 18.0339 15.2337 16.3708 15.2337 14.3003C15.2337 12.2637 16.9268 10.5666 19 10.5666C21.0386 10.5666 22.7663 12.2976 22.7663 14.3003ZM27.5 11.9922H25.6341C25.3577 11.9922 25.1159 11.7885 25.1159 11.517V9.65013C25.1159 9.41253 25.3577 9.20888 25.6341 9.20888H27.5C27.7764 9.20888 27.9837 9.41253 27.9837 9.65013V11.517C27.9837 11.7885 27.811 11.9922 27.5 11.9922Z" fill="black" fill-opacity="0.45"/>
</g>
<path fill-rule="evenodd" clip-rule="evenodd" d="M3.76626 13V2.78329C3.76626 1.28982 5.07927 0 6.59959 0H27.3659C28.9553 0 30.2337 1.28982 30.2337 2.78329V13L33.689 18.1253C33.8963 18.4648 34 18.7702 34 19.1436V24.1671C34 25.1854 33.1362 26 32.1341 26H1.90041C0.794715 26 0 25.2193 0 24.1671V19.1436C0 18.8042 0.138211 18.4308 0.345528 18.1253L3.76626 13ZM27.8841 22.3003H6.15041C5.90854 22.3003 5.70122 22.0627 5.70122 21.8251V20.9086C5.70122 20.671 5.87398 20.4674 6.15041 20.4674H27.8841C28.126 20.4674 28.3679 20.671 28.3679 20.9086V21.8251C28.3679 22.0966 28.1606 22.3003 27.8841 22.3003ZM20.7663 9.30026C20.7663 11.3708 19.0732 13.0339 17 13.0339C14.8923 13.0339 13.2337 11.3708 13.2337 9.30026C13.2337 7.26371 14.9268 5.56658 17 5.56658C19.0386 5.56658 20.7663 7.29765 20.7663 9.30026ZM25.5 6.99217H23.6341C23.3577 6.99217 23.1159 6.78851 23.1159 6.51697V4.65013C23.1159 4.41253 23.3577 4.20888 23.6341 4.20888H25.5C25.7764 4.20888 25.9837 4.41253 25.9837 4.65013V6.51697C25.9837 6.78851 25.811 6.99217 25.5 6.99217Z" fill="white"/>
<defs>
<filter id="filter0_f" x="0" y="3" width="38" height="30" filterUnits="userSpaceOnUse" color-interpolation-filters="sRGB">
<feFlood flood-opacity="0" result="BackgroundImageFix"/>
<feBlend mode="normal" in="SourceGraphic" in2="BackgroundImageFix" result="shape"/>
<feGaussianBlur stdDeviation="1" result="effect1_foregroundBlur"/>
</filter>
</defs>
</svg>
