<svg width="34" height="49" viewBox="0 0 34 49" fill="none" xmlns="http://www.w3.org/2000/svg">
<path fill-rule="evenodd" clip-rule="evenodd" d="M33.7598 4H2V48.4637H33.7598V4ZM31.1308 6.51005H4.51005V33.2888H31.1308V6.51005Z" fill="black" fill-opacity="0.5"/>
<path fill-rule="evenodd" clip-rule="evenodd" d="M20.2052 22.5433H23.3667C23.8018 22.5433 24.1498 22.1577 24.1498 21.7128V18.5093C24.1498 18.0051 23.8018 17.6788 23.3667 17.6788H20.2052V14.416C20.2052 14.0007 19.8282 13.6151 19.3931 13.6151L17.8124 13.5558H16.2316C15.7966 13.5558 15.4485 13.9118 15.4485 14.3567V17.6195H12.2871C11.823 17.6195 11.4459 17.9754 11.4459 18.45V20.0517V21.7128C11.4459 22.1577 11.823 22.5433 12.2871 22.5433H15.4485V25.7765C15.4485 26.2214 15.7386 26.5773 16.2316 26.5773H19.3931C19.8282 26.5773 20.2052 26.2214 20.2052 25.7765V22.5433Z" fill="black" fill-opacity="0.5"/>
<path fill-rule="evenodd" clip-rule="evenodd" d="M32 0.768127H0.240234V45.2319H32V0.768127ZM29.371 3.27818H2.75028V30.0569H29.371V3.27818Z" fill="white"/>
<path fill-rule="evenodd" clip-rule="evenodd" d="M18.4455 19.3115H21.607C22.042 19.3115 22.3901 18.9259 22.3901 18.4809V15.2775C22.3901 14.7732 22.042 14.4469 21.607 14.4469H18.4455V11.1841C18.4455 10.7689 18.0684 10.3833 17.6334 10.3833L16.0526 10.3239H14.4719C14.0368 10.3239 13.6888 10.6799 13.6888 11.1248V14.3876H10.5273C10.0632 14.3876 9.68616 14.7435 9.68616 15.2181V16.8199V18.4809C9.68616 18.9259 10.0632 19.3115 10.5273 19.3115H13.6888V22.5446C13.6888 22.9895 13.9788 23.3455 14.4719 23.3455H17.6334C18.0684 23.3455 18.4455 22.9895 18.4455 22.5446V19.3115Z" fill="white"/>
</svg>
