<svg width="26" height="27" viewBox="0 0 26 27" fill="none" xmlns="http://www.w3.org/2000/svg">
<path fill-rule="evenodd" clip-rule="evenodd" d="M19.9998 17.6703C23.3697 15.504 26 12.5974 26 7.77126C26 6.56474 26 5.41305 25.6712 3.9049C25.5893 3.59907 25.4634 3.47293 25.0959 3.32905C23.6163 3 22.4108 3 21.2601 3C16.4106 3 13.4789 5.605 11.3419 9.00521H6.46495C5.69779 9.00521 4.79364 9.58105 4.43747 10.2392L2.13601 14.8733C2.05784 15.0573 2.0359 15.1659 2.02642 15.3669C2.02642 15.9702 2.51958 16.4912 3.12235 16.4912H7.99926C9.20478 16.4912 10.3812 16.9847 11.1775 17.8074C12.0268 18.6848 12.52 19.8365 12.52 21.0156V25.8692C12.52 26.4998 13.0132 26.9934 13.6433 26.9934C13.8426 26.9783 13.9515 26.9542 14.1365 26.8837L18.7394 24.5804C19.4244 24.2513 19.9998 23.3464 19.9998 22.5512V17.6703ZM18.7942 15.7782L14.1365 18.2187C13.4789 16.7654 12.2734 15.5588 10.7939 14.8733L13.2324 10.2117C15.4516 6.72926 17.8353 5.24853 21.2601 5.24853L23.6437 5.35821L23.7533 7.77126C23.7533 11.1715 22.2738 13.5571 18.7942 15.7782ZM19.26 11.6376C20.2737 11.6376 21.1231 10.815 21.1231 9.74558C21.1231 8.70358 20.2737 7.85353 19.26 7.85353C18.2189 7.85353 17.3695 8.731 17.3695 9.74558C17.3695 10.7876 18.1641 11.6376 19.26 11.6376Z" fill="black" fill-opacity="0.5"/>
<path fill-rule="evenodd" clip-rule="evenodd" d="M2.02642 26.966C5.25942 27.158 8.30065 26.5273 9.50618 25.3207C11.3693 23.4561 11.4789 20.906 9.80756 19.2058C8.1093 17.4783 5.56081 17.6154 3.67032 19.5075C2.47156 20.7089 1.86202 23.7577 2.02642 26.966ZM7.50609 23.4561C7.09512 23.84 6.10878 24.032 5.01284 24.0045C4.95804 22.9351 5.14983 21.9205 5.56081 21.5092C6.19097 20.8785 7.04032 20.8511 7.58829 21.3995C8.16365 21.9754 8.13626 22.8675 7.50609 23.4561Z" fill="black" fill-opacity="0.5"/>
<path fill-rule="evenodd" clip-rule="evenodd" d="M17.9998 14.6703C21.3697 12.504 24 9.59737 24 4.77126C24 3.56474 24 2.41305 23.6712 0.904895C23.5893 0.599067 23.4634 0.472931 23.0959 0.329053C21.6163 -2.98023e-08 20.4108 -1.23275e-06 19.2601 4.77213e-09C14.4106 4.77213e-09 11.4789 2.605 9.34187 6.00521H4.46495C3.69779 6.00521 2.79364 6.58105 2.43747 7.23916L0.13601 11.8733C0.0578415 12.0573 0.0359038 12.1659 0.0264167 12.3669C0.0264167 12.9702 0.519579 13.4912 1.12235 13.4912H5.99926C7.20478 13.4912 8.38122 13.9847 9.17748 14.8074C10.0268 15.6848 10.52 16.8365 10.52 18.0156V22.8692C10.52 23.4998 11.0132 23.9934 11.6433 23.9934C11.8426 23.9783 11.9515 23.9542 12.1365 23.8837L16.7394 21.5804C17.4244 21.2513 17.9998 20.3464 17.9998 19.5512V14.6703ZM16.7942 12.7782L12.1365 15.2187C11.4789 13.7654 10.2734 12.5588 8.7939 11.8733L11.2324 7.21174C13.4516 3.72926 15.8353 2.24853 19.2601 2.24853L21.6437 2.35821L21.7533 4.77126C21.7533 8.17148 20.2738 10.5571 16.7942 12.7782ZM17.26 8.63763C18.2737 8.63763 19.1231 7.815 19.1231 6.74558C19.1231 5.70358 18.2737 4.85353 17.26 4.85353C16.2189 4.85353 15.3695 5.731 15.3695 6.74558C15.3695 7.78758 16.1641 8.63763 17.26 8.63763Z" fill="white"/>
<path fill-rule="evenodd" clip-rule="evenodd" d="M0.0264167 23.966C3.25942 24.158 6.30065 23.5273 7.50618 22.3207C9.36926 20.4561 9.47886 17.906 7.80756 16.2058C6.1093 14.4783 3.56081 14.6154 1.67032 16.5075C0.471557 17.7089 -0.137982 20.7577 0.0264167 23.966ZM5.50609 20.4561C5.09512 20.84 4.10878 21.032 3.01284 21.0045C2.95804 19.9351 3.14983 18.9205 3.56081 18.5092C4.19097 17.8785 5.04032 17.8511 5.58829 18.3995C6.16365 18.9754 6.13626 19.8675 5.50609 20.4561Z" fill="white"/>
</svg>
