<svg width="28" height="28" viewBox="0 0 28 28" fill="none" xmlns="http://www.w3.org/2000/svg">
<path fill-rule="evenodd" clip-rule="evenodd" d="M2.99739 28H25.0026C26.6475 28 28 26.6841 28 25.0392V2.99739C28 1.35248 26.6475 0 25.0026 0H2.99739C1.35248 0 0 1.35248 0 2.99739V25.0392C0 26.6841 1.35248 28 2.99739 28ZM19.9948 22.517C19.9948 23.3577 19.3003 24.0157 18.4961 24.0157H17.5091C16.6684 24.0157 16.0104 23.3211 16.0104 22.517V21.0183H4.75196C4.34987 21.0183 4.02089 20.6527 4.02089 20.2872V17.765C4.02089 17.3629 4.34987 17.0339 4.75196 17.0339H16.0104V15.5352C16.0104 14.6945 16.6684 14.0366 17.5091 14.0366H18.4961C19.3368 14.0366 19.9948 14.6945 19.9948 15.5352V17.0339H23.248C23.6501 17.0339 24.0157 17.3629 24.0157 17.765V20.2872C24.0157 20.6893 23.6501 21.0183 23.248 21.0183H19.9948V22.517ZM11.9896 12.5013V11.0392H23.2115C23.6501 11.0392 23.9791 10.7102 23.9791 10.2715V7.7859C23.9791 7.34726 23.6867 7.01828 23.2115 7.01828H11.9896V5.55614C11.9896 4.7154 11.3681 4.02089 10.5274 4.02089H9.50392C8.66319 4.02089 7.96867 4.7154 7.96867 5.55614V7.01828H4.75196C4.31332 7.01828 3.98433 7.38381 3.98433 7.7859V10.2715C3.98433 10.6736 4.34987 11.0392 4.75196 11.0392H7.96867V12.5013C7.96867 13.342 8.66319 14.0366 9.50392 14.0366H10.5274C11.3316 14.0366 11.9896 13.342 11.9896 12.5013Z" fill="#3F3F3F"/>
</svg>
