<svg width="34" height="33" viewBox="0 0 34 33" fill="none" xmlns="http://www.w3.org/2000/svg">
<g clip-path="url(#clip0)">
<path d="M28.9821 8.27967L32.8015 6.6467C32.9918 6.55338 33.106 6.42277 33.106 6.19883C33.106 5.97489 32.9728 5.80694 32.8015 5.7323L29.02 4.11799L27.3553 0.258975C27.184 -0.0769313 26.594 -0.0955924 26.4227 0.258975L24.8204 4.11799L20.9236 5.73844C20.7332 5.8504 20.6571 5.98102 20.6571 6.20497C20.6571 6.44755 20.7332 6.55952 20.9236 6.65283L24.7826 8.27967L26.3849 12.063C26.4801 12.2496 26.6133 12.3429 26.8797 12.3429C27.0891 12.3429 27.2223 12.2496 27.3175 12.063L28.9821 8.27967Z" fill="black"/>
<path d="M28.9821 28.9368L32.8015 27.3038C32.9918 27.2105 33.106 27.0799 33.106 26.8559C33.106 26.632 32.9728 26.464 32.8015 26.3894L29.02 24.7751L27.3553 20.9161C27.184 20.5802 26.594 20.5615 26.4227 20.9161L24.8204 24.7751L20.9236 26.3955C20.7332 26.5075 20.6571 26.6381 20.6571 26.8621C20.6571 27.1047 20.7332 27.2166 20.9236 27.3099L24.7826 28.9368L26.3849 32.7201C26.4801 32.9067 26.6133 33 26.8797 33C27.0891 33 27.2223 32.9067 27.3175 32.7201L28.9821 28.9368Z" fill="black"/>
<path fill-rule="evenodd" clip-rule="evenodd" d="M17.2521 21.3381L23.9864 17.9331C24.5539 17.6304 24.8566 17.1386 24.8566 16.5332C24.8566 16.0036 24.5161 15.4361 23.9864 15.1334L17.2521 11.7284L13.8092 4.95619C13.2795 3.89685 11.5392 3.89685 11.0095 4.95619L7.64236 11.7284L0.832336 15.1334C0.264834 15.4361 0 15.7766 0 16.5332C0 17.2521 0.302668 17.5547 0.832336 17.9331L7.64236 21.3381L11.0095 28.0346C11.3122 28.6399 11.8419 28.9804 12.4094 28.9804C12.9769 28.9804 13.4687 28.6399 13.8092 28.0346L17.2521 21.3381ZM15.3604 18.7654C15.0149 18.9439 14.855 19.0889 14.6416 19.4464L12.4094 23.8729L10.2529 19.4464C10.0709 19.1218 9.92942 18.9674 9.57187 18.7654L5.06968 16.5332L9.57187 14.2632C9.92766 14.0472 10.0698 13.9036 10.2529 13.6201L12.4094 9.19354L14.6416 13.6201C14.89 13.9829 15.0491 14.1226 15.3604 14.2632L19.7869 16.5332L15.3604 18.7654Z" fill="black"/>
</g>
<defs>
<clipPath id="clip0">
<rect width="33.106" height="33" fill="white"/>
</clipPath>
</defs>
</svg>
